<?xml version="1.0" encoding="UTF-8" standalone="no"?>
<svg width="512px" height="512px" viewBox="0 0 512 512" version="1.1" xmlns="http://www.w3.org/2000/svg" xmlns:xlink="http://www.w3.org/1999/xlink">
    <!-- Generator: Sketch 3.8.3 (29802) - http://www.bohemiancoding.com/sketch -->
    <title>aspen</title>
    <desc>Created with Sketch.</desc>
    <defs></defs>
    <g id="Final" stroke="none" stroke-width="1" fill="none" fill-rule="evenodd">
        <g id="aspen" fill="#F9C60D">
            <path d="M240.522874,477.349329 L240.522874,495.503586 L249.596628,495.503586 L249.596628,510 L217.802765,510 L217.802765,495.295516 L225.59837,495.295516 L225.59837,430.521069 L217.303571,430.521069 L217.303571,416.662063 L240.522874,416.455878 L240.522874,424.590302 C246.64981,418.462302 254.911077,414.705882 264.000112,414.705882 C282.896078,414.705882 298.214286,430.941798 298.214286,450.969816 C298.214286,470.997833 282.896078,487.233749 264.000112,487.233749 C254.911077,487.233749 246.64981,483.477329 240.522874,477.349329 L240.522874,477.349329 Z M92.0450435,454.954578 L86.9495853,469.269267 L95.3566851,469.269267 L95.3566851,481.764706 L59,481.764706 L59.0067955,467.785299 L67.7975538,467.785299 L95.3995712,404.42573 L85.3618207,404.42573 L85.3618207,390 L115.856007,390 L148.730274,468.022762 L157.5,468.022762 L157.5,481.624622 L119.870531,481.624622 L119.870531,469.26982 L128.972741,469.26982 L123.793416,454.954578 L92.0450435,454.954578 L92.0450435,454.954578 Z M97.1458041,440.624992 L107.789965,410.722314 L118.608901,440.624992 L97.1458041,440.624992 L97.1458041,440.624992 Z M399.528571,422.891291 L399.528571,415.635148 L375.607143,415.635148 L375.607143,430.147433 L384.05,430.147433 L384.05,470.781832 L375.607143,470.781832 L375.607143,485.294118 L407.971429,485.294118 L407.971429,470.781832 L399.528571,470.781832 L399.528571,439.701111 C400.512017,438.094034 402.271788,435.809769 405.272843,433.480938 C410.823298,429.173759 418.87212,430.147434 423.0241,432.721835 C427.176081,435.296237 429.157355,440.347455 429.157355,440.347455 L429.157355,470.781832 L420.635714,470.781832 L420.635714,485.294118 L453,485.294118 L453,470.781832 L445.183888,470.781832 C445.183888,464.6808 445.183886,446.171367 445.183889,436.273633 C445.183892,424.308373 432.404187,416.591098 429.157354,415.722975 C425.910522,414.854851 416.908589,413.646834 410.000476,416.251884 C405.990074,417.764208 402.092624,421.724437 399.528571,424.780696 L399.528571,422.891291 Z M354.570507,466.588235 C350.610204,472.01046 344.524737,475.482353 337.700438,475.482353 C327.631188,475.482353 319.170451,467.9237 316.771543,457.694118 L341.667618,457.694118 L371.641422,457.694118 C371.93614,455.763457 372.089286,453.782922 372.089286,451.764706 C372.089286,431.297683 356.339303,414.705882 336.910714,414.705882 C317.482126,414.705882 301.732143,431.297683 301.732143,451.764706 C301.732143,472.231729 317.482126,488.823529 336.910714,488.823529 C351.336173,488.823529 363.733669,479.676706 369.162121,466.588235 L354.570507,466.588235 L354.570507,466.588235 Z M358.629332,445.835294 C356.230425,435.605712 347.769688,428.047059 337.700438,428.047059 C327.631188,428.047059 319.170451,435.605712 316.771543,445.835294 L358.629332,445.835294 L358.629332,445.835294 Z M209.940205,412.955745 L198.767446,412.955745 L198.767446,416.730047 L198.767446,417.067701 C198.767446,417.067701 193.681319,412.386674 188.522964,411.540382 C183.364608,410.69409 174.88144,411.11687 170.140335,415.04624 C165.39923,418.97561 160.305441,423.336538 161.100369,432.813254 C161.895297,442.28997 165.494344,449.64986 184.447655,454.710057 C203.400966,459.770253 196.55539,469.216654 195.485896,470.794459 C194.416403,472.372264 181.428613,479.118537 176.379654,464.178727 L161.23187,464.178727 L161.23187,484.375848 L172.351032,484.375848 L172.351032,479.240678 L174.750919,479.240678 C174.750919,479.240678 177.761925,482.389732 181.10479,483.870196 C184.447656,485.350661 195.388507,486.51601 201.989534,482.878345 C208.590562,479.24068 213.785716,473.768088 213.785714,462.737763 C213.785712,451.707438 206.089836,444.997082 193.597314,442.264369 C181.104791,439.531657 176.396316,435.676896 177.314823,429.706038 C178.233329,423.735181 183.936776,423.279485 185.899353,423.279485 C187.861931,423.279485 191.279873,423.955588 193.103,425.979281 C194.926128,428.002973 194.926128,432.642094 194.926128,432.642094 L209.940205,432.642094 L209.940205,412.955745 Z M261.861726,472.728176 C273.278039,472.728176 282.53279,462.986626 282.53279,450.969816 C282.53279,438.953005 273.278039,429.211456 261.861726,429.211456 C250.445414,429.211456 241.190663,438.953005 241.190663,450.969816 C241.190663,462.986626 250.445414,472.728176 261.861726,472.728176 L261.861726,472.728176 Z" id="Combined-Shape"></path>
            <g id="logomark" transform="translate(79.000000, 3.000000)">
                <path d="M176.5,353 C273.978258,353 353,273.978258 353,176.5 C353,79.0217417 273.978258,0 176.5,0 C79.0217417,0 0,79.0217417 0,176.5 C0,273.978258 79.0217417,353 176.5,353 L176.5,353 Z M176.672363,321.629883 C256.730191,321.629883 321.629883,256.730191 321.629883,176.672363 C321.629883,96.6145359 256.730191,31.7148437 176.672363,31.7148437 C96.6145359,31.7148437 31.7148437,96.6145359 31.7148437,176.672363 C31.7148437,256.730191 96.6145359,321.629883 176.672363,321.629883 L176.672363,321.629883 Z" id="Combined-Shape"></path>
                <path d="M127.946764,115.866489 C120.681579,122.725013 114.082372,129.981407 108.471488,138.05281 L159.226234,167.816427 L159.226234,134.209407 L127.946764,115.866489 L127.946764,115.866489 Z M135.749642,108.842085 C140.808522,104.478512 146.107184,100.224406 151.553828,95.9609699 C153.978204,94.0632565 156.625734,91.5170287 159.226234,88.7747168 L159.226234,122.609237 L135.749642,108.842085 L135.749642,108.842085 Z M103.137534,146.525041 C98.148644,155.339896 94.2940485,165.142965 91.9125858,176.372731 L159.226234,215.846826 L159.226234,179.416598 L103.137534,146.525041 L103.137534,146.525041 Z M90.2388492,186.991388 C86.2124094,232.891735 134.081761,246.013449 159.226234,249.733395 L159.226234,227.446997 L90.2388492,186.991388 L90.2388492,186.991388 Z M220.7218,115.54741 C228.009964,122.395923 234.636721,129.636086 240.279409,137.685449 L188.898217,167.816427 L188.898217,134.209407 L220.7218,115.54741 L220.7218,115.54741 Z M212.900023,108.534089 C207.949263,104.27821 202.771938,100.124037 197.453517,95.9609699 C194.805184,93.8879513 191.823628,91.0436223 188.898217,88.0163165 L188.898217,122.609237 L212.900023,108.534089 L212.900023,108.534089 Z M245.64898,146.136794 C250.676326,154.931719 254.572035,164.710431 256.996221,175.912769 L188.898217,215.846826 L188.898217,179.416598 L245.64898,146.136794 L245.64898,146.136794 Z M258.722262,186.500754 C263.114649,232.887674 214.327225,245.9857 188.898217,249.655723 L188.898217,227.446997 L258.722262,186.500754 L258.722262,186.500754 Z M169.116895,77.3622726 C172.09776,73.6667956 174.077318,71 174.077318,71 L174.077318,71.0521008 C174.264946,71.2879903 176.18715,73.6989526 179.007556,77.0212355 L179.007556,256.341167 L179.007556,282 L169.116895,282 L169.116895,256.395018 L169.116895,77.3622726 L169.116895,77.3622726 Z" id="Combined-Shape"></path>
            </g>
        </g>
    </g>
</svg>